<svg xmlns="http://www.w3.org/2000/svg" width="1100" height="610" viewBox="0 0 1100 610" role="img" aria-labelledby="title desc">
  <title id="title">StickS3, GPS Unit and ML307R-DL Tiny functional wiring</title>
  <desc id="desc">GPS Unit v1.1 remains on the StickS3 Grove connector. With the modem shield text upright and its six-hole header on the right, the seller image labels the holes from top to bottom BAT, EN, RX, TX, GND and VIN. A supplied interface table numbers pins in the opposite direction from VIN pin 1 to BAT pin 6. StickS3 Hat2 pin 2 GPIO5 TX connects to Tiny RXD, table pin 4; Hat2 pin 6 GPIO6 RX must receive Tiny TXD, table pin 3, through a UART-suitable level shifter or measured divider because Tiny TXD idle was measured around 3.6 V. Hat2 pin 1 GND connects to Tiny GND, table pin 2. Tiny VIN uses a separate 5 V supply branch with common ground. EN stays unconnected because it is pulled up to VIN and must not be wired directly to a 3.3 V GPIO.</desc>
  <rect width="1100" height="610" fill="#f7fafc"/>
  <g font-family="Arial, Helvetica, sans-serif">
    <text x="38" y="54" fill="#142738" font-size="30" font-weight="700">StickS3 + GPS Unit + ML307R-DL Tiny</text>
    <text x="38" y="86" fill="#a13b27" font-size="18" font-weight="700">Tiny 按商品图从上数孔位；接口表从底部 VIN=1 反向编号</text>
    <text x="38" y="116" fill="#a13b27" font-size="18" font-weight="700">Tiny TXD 实测约 3.6 V；经电平转换后才接 StickS3 GPIO6</text>
    <g fill="#fff" stroke="#55728d" stroke-width="3">
      <rect x="38" y="143" width="245" height="220" rx="16"/>
      <rect x="356" y="143" width="340" height="350" rx="16"/>
      <rect x="772" y="143" width="290" height="350" rx="16"/>
      <rect x="772" y="525" width="290" height="62" rx="12"/>
    </g>
    <g fill="#142738" font-size="23" font-weight="700">
      <text x="59" y="183">GPS Unit v1.1</text>
      <text x="379" y="183">StickS3 K150</text>
      <text x="795" y="183">ML307R-DL Tiny</text>
    </g>
    <g fill="#36536d" font-size="18">
      <text x="59" y="226">Grove 黑线 · GND</text>
      <text x="59" y="265">Grove 红线 · 5 V</text>
      <text x="59" y="304">Grove 黄线 · RX</text>
      <text x="59" y="343">Grove 白线 · TX</text>
      <text x="379" y="221">Grove GND / 5 V</text>
      <text x="379" y="247">GPIO9 TX / GPIO10 RX</text>
      <text x="379" y="300">Hat2 #1 GND</text>
      <text x="379" y="365">Hat2 #2 GPIO5 · UART1 TX</text>
      <text x="379" y="430">Hat2 #6 GPIO6 · UART1 RX</text>
      <text x="795" y="300">GND · 表#2</text>
      <text x="795" y="365">RXD · 表#4</text>
      <text x="795" y="430">TXD · 表#3</text>
      <text x="795" y="550" font-size="16">独立 5 V/≥2 A → VIN</text>
      <text x="795" y="574" font-size="16">EN 留空；BAT 不供电</text>
    </g>
    <path d="M943 235 V473" stroke="#ced8df" stroke-width="2"/>
    <text x="952" y="211" fill="#36536d" font-size="16" font-weight="700">右侧六孔</text>
    <text x="952" y="228" fill="#5d7182" font-size="13">屏蔽罩文字正向</text>
    <g fill="#5d7182" font-size="14">
      <text x="953" y="260">BAT</text>
      <text x="953" y="300">EN</text>
      <text x="953" y="460">VIN</text>
    </g>
    <g fill="#142738" font-size="14" font-weight="700">
      <text x="953" y="340">RX</text>
      <text x="953" y="380">TX</text>
      <text x="953" y="420">GND</text>
    </g>
    <g fill="#f7fafc" stroke="#8ca2b2" stroke-width="2">
      <circle cx="1034" cy="255" r="9"/>
      <circle cx="1034" cy="295" r="9"/>
      <circle cx="1034" cy="455" r="9"/>
    </g>
    <g fill="#e4f1fb" stroke="#407ab1" stroke-width="2">
      <circle cx="1034" cy="335" r="9"/>
      <circle cx="1034" cy="375" r="9"/>
    </g>
    <circle cx="1034" cy="415" r="9" fill="#e7f3ed" stroke="#59a481" stroke-width="2"/>
    <g stroke-width="4" fill="none">
      <path d="M283 249 H356" stroke="#59a481"/>
      <path d="M696 293 H772" stroke="#4a647b"/>
      <path d="M696 358 H772" stroke="#c47d35"/>
      <path d="M772 423 H696" stroke="#407ab1" stroke-dasharray="9 6"/>
      <path d="M920 493 V525" stroke="#a13b27" stroke-dasharray="8 7"/>
    </g>
    <g fill="#5d7182" font-size="17">
      <text x="314" y="237" text-anchor="middle">原线</text>
      <text x="733" y="285" text-anchor="middle">共地</text>
      <text x="733" y="349" text-anchor="middle">TX → RX</text>
      <text x="733" y="452" text-anchor="middle">需转换</text>
      <text x="38" y="548">StickS3 USB + Tiny 独立 5 V/≥2 A；Tiny 不接 Hat2 EXT_5V/BAT。4G 天线先接好。</text>
      <text x="38" y="578">或外部 5 V/≥3 A 分路接 Hat2 #15 5V_IN 与 Tiny VIN；两板共地，EN 留空。</text>
    </g>
  </g>
</svg>
